<?xml version="1.0" encoding="utf-8"?>
<!-- Svg Vector Icons : http://www.onlinewebfonts.com/icon -->
<!DOCTYPE svg PUBLIC "-//W3C//DTD SVG 1.1//EN" "http://www.w3.org/Graphics/SVG/1.1/DTD/svg11.dtd">
<svg version="1.1" xmlns="http://www.w3.org/2000/svg" xmlns:xlink="http://www.w3.org/1999/xlink" x="0px" y="0px" viewBox="0 0 1000 1000" enable-background="new 0 0 1000 1000" xml:space="preserve">
<metadata> Svg Vector Icons : http://www.onlinewebfonts.com/icon </metadata>
<g><g><path d="M796,10H384.2c-59.8,0-108.5,48.7-108.5,108.5v13.3H204c-59.8,0-108.5,48.7-108.5,108.5v641.3C95.6,941.3,144.2,990,204,990h411.7c59.8,0,108.5-48.7,108.5-108.5v-13.3H796c59.8,0,108.5-48.7,108.5-108.5V118.5C904.4,58.7,855.8,10,796,10z M654.3,881.5c0,21.2-17.3,38.5-38.5,38.5H204c-21.2,0-38.5-17.3-38.5-38.5V240.2c0-21.2,17.3-38.5,38.5-38.5h411.7c21.2,0,38.5,17.3,38.5,38.5L654.3,881.5L654.3,881.5z M834.5,759.8c0,21.2-17.3,38.5-38.5,38.5h-71.7v-558c0-59.8-48.7-108.5-108.5-108.5h-270v-13.3c0-21.2,17.3-38.5,38.5-38.5H796c21.2,0,38.5,17.3,38.5,38.5V759.8z"/></g><g></g><g></g><g></g><g></g><g></g><g></g><g></g><g></g><g></g><g></g><g></g><g></g><g></g><g></g><g></g></g>
</svg>